<svg xmlns="http://www.w3.org/2000/svg" width="599.963" height="599.963" viewBox="0 0 843 843">
  <metadata><?xpacket begin="﻿" id="W5M0MpCehiHzreSzNTczkc9d"?>
<x:xmpmeta xmlns:x="adobe:ns:meta/" x:xmptk="Adobe XMP Core 5.6-c142 79.160924, 2017/07/13-01:06:39        ">
   <rdf:RDF xmlns:rdf="http://www.w3.org/1999/02/22-rdf-syntax-ns#">
      <rdf:Description rdf:about=""/>
   </rdf:RDF>
</x:xmpmeta>
                                                                                                    
                                                                                                    
                                                                                                    
                                                                                                    
                                                                                                    
                                                                                                    
                                                                                                    
                                                                                                    
                                                                                                    
                                                                                                    
                                                                                                    
                                                                                                    
                                                                                                    
                                                                                                    
                                                                                                    
                                                                                                    
                                                                                                    
                                                                                                    
                                                                                                    
                                                                                                    
                           
<?xpacket end="w"?></metadata>
<defs>
    <style>
      .cls-1 {
        fill: #fff;
        fill-rule: evenodd;
      }
    </style>
  </defs>
  <g id="画板_1" data-name="画板 1">
    <path id="矩形_1" data-name="矩形 1" class="cls-1" d="M387,900h12q-68.493,205.485-137,411c-8.961,41.01,32.245,44.56,68,44q-12.5,33.99-25,68c-49.628.84-149.755,9.59-170-18-20.9-28.49,9.257-98.15,19-126L265,933c23.674-6.848,46.177-18.443,72-25Zm44,200H548q-39,126.48-78,253h61c28.432-8.04,35.541-51.88,44-80,11.4-37.89,38.8-105-26-104v-3q10.5-33,21-66c45.186,5.01,126.165-9.3,148,20,14.909,20.01,6.543,51.91-1,74-18.4,53.91-47.819,183.52-88,209-30.41,19.28-69.2,20.01-121,20-11.951,0-56.617-2.57-61,3q-31.5,100.485-63,201h-6q-28.5-5.505-57-11-25.5-9.495-51-19Z" transform="translate(-6 -842)"/>
  </g>
</svg>
